<mxfile host="app.diagrams.net" modified="2022-12-15T17:43:17.194Z" agent="5.0 (Windows NT 10.0; Win64; x64) AppleWebKit/537.36 (KHTML, like Gecko) Chrome/107.0.0.0 Safari/537.36 OPR/93.0.0.0" version="20.6.2" etag="mQiVJTd14Xseyi0za6OI" type="github">
  <diagram id="ekc1og9A78pFyZE3Uyi7" name="Página-1">
    <mxGraphModel dx="998" dy="540" grid="1" gridSize="10" guides="1" tooltips="1" connect="1" arrows="1" fold="1" page="1" pageScale="1" pageWidth="827" pageHeight="1169" math="0" shadow="0">
      <root>
        <mxCell id="0" />
        <mxCell id="1" parent="0" />
        <mxCell id="l2SYp345RRYpBKZvANww-1" value="Submissor" style="shape=umlActor;verticalLabelPosition=bottom;verticalAlign=top;html=1;outlineConnect=0;" vertex="1" parent="1">
          <mxGeometry x="80" y="20" width="40" height="70" as="geometry" />
        </mxCell>
        <mxCell id="l2SYp345RRYpBKZvANww-2" value="ViewSubmissao&lt;br&gt;Minicurso" style="shape=umlBoundary;whiteSpace=wrap;html=1;" vertex="1" parent="1">
          <mxGeometry x="240" y="10" width="120" height="100" as="geometry" />
        </mxCell>
        <mxCell id="l2SYp345RRYpBKZvANww-3" value="Submissão" style="html=1;" vertex="1" parent="1">
          <mxGeometry x="710" y="310" width="110" height="50" as="geometry" />
        </mxCell>
        <mxCell id="l2SYp345RRYpBKZvANww-4" value="TipoSubmissão" style="html=1;" vertex="1" parent="1">
          <mxGeometry x="490" y="220" width="110" height="50" as="geometry" />
        </mxCell>
        <mxCell id="l2SYp345RRYpBKZvANww-6" value="" style="endArrow=none;html=1;rounded=0;" edge="1" parent="1">
          <mxGeometry width="50" height="50" relative="1" as="geometry">
            <mxPoint x="100" y="470" as="sourcePoint" />
            <mxPoint x="100" y="120" as="targetPoint" />
          </mxGeometry>
        </mxCell>
        <mxCell id="l2SYp345RRYpBKZvANww-7" value="" style="endArrow=none;html=1;rounded=0;" edge="1" parent="1">
          <mxGeometry width="50" height="50" relative="1" as="geometry">
            <mxPoint x="310" y="470" as="sourcePoint" />
            <mxPoint x="310" y="120" as="targetPoint" />
          </mxGeometry>
        </mxCell>
        <mxCell id="l2SYp345RRYpBKZvANww-10" value="" style="endArrow=classic;html=1;rounded=0;" edge="1" parent="1">
          <mxGeometry width="50" height="50" relative="1" as="geometry">
            <mxPoint x="100" y="150" as="sourcePoint" />
            <mxPoint x="310" y="150" as="targetPoint" />
          </mxGeometry>
        </mxCell>
        <mxCell id="l2SYp345RRYpBKZvANww-11" value="" style="html=1;verticalAlign=bottom;labelBackgroundColor=none;endArrow=block;endFill=1;dashed=1;rounded=0;" edge="1" parent="1">
          <mxGeometry width="160" relative="1" as="geometry">
            <mxPoint x="310" y="200" as="sourcePoint" />
            <mxPoint x="100" y="200" as="targetPoint" />
          </mxGeometry>
        </mxCell>
        <mxCell id="l2SYp345RRYpBKZvANww-12" value="Seleciona &quot;Criar Submissão&quot;" style="text;html=1;align=center;verticalAlign=middle;resizable=0;points=[];autosize=1;strokeColor=none;fillColor=none;" vertex="1" parent="1">
          <mxGeometry x="110" y="120" width="180" height="30" as="geometry" />
        </mxCell>
        <mxCell id="l2SYp345RRYpBKZvANww-14" value="Mostra tipos de submissão" style="text;html=1;align=center;verticalAlign=middle;resizable=0;points=[];autosize=1;strokeColor=none;fillColor=none;" vertex="1" parent="1">
          <mxGeometry x="120" y="170" width="170" height="30" as="geometry" />
        </mxCell>
        <mxCell id="l2SYp345RRYpBKZvANww-15" value="" style="endArrow=classic;html=1;rounded=0;" edge="1" parent="1">
          <mxGeometry width="50" height="50" relative="1" as="geometry">
            <mxPoint x="100" y="250" as="sourcePoint" />
            <mxPoint x="310" y="250" as="targetPoint" />
          </mxGeometry>
        </mxCell>
        <mxCell id="l2SYp345RRYpBKZvANww-16" value="Seleciona &quot;Minicurso&quot;" style="text;html=1;align=center;verticalAlign=middle;resizable=0;points=[];autosize=1;strokeColor=none;fillColor=none;" vertex="1" parent="1">
          <mxGeometry x="140" y="215" width="140" height="30" as="geometry" />
        </mxCell>
        <mxCell id="l2SYp345RRYpBKZvANww-17" value="" style="endArrow=classic;html=1;rounded=0;" edge="1" parent="1">
          <mxGeometry width="50" height="50" relative="1" as="geometry">
            <mxPoint x="280" y="250" as="sourcePoint" />
            <mxPoint x="490" y="250" as="targetPoint" />
          </mxGeometry>
        </mxCell>
        <mxCell id="l2SYp345RRYpBKZvANww-18" value="createTipoSubmissao&lt;br&gt;(minicurso)" style="text;html=1;align=center;verticalAlign=middle;resizable=0;points=[];autosize=1;strokeColor=none;fillColor=none;" vertex="1" parent="1">
          <mxGeometry x="320" y="210" width="140" height="40" as="geometry" />
        </mxCell>
        <mxCell id="l2SYp345RRYpBKZvANww-19" value="" style="endArrow=none;html=1;rounded=0;" edge="1" parent="1">
          <mxGeometry width="50" height="50" relative="1" as="geometry">
            <mxPoint x="545" y="470" as="sourcePoint" />
            <mxPoint x="544.5" y="270" as="targetPoint" />
          </mxGeometry>
        </mxCell>
        <mxCell id="l2SYp345RRYpBKZvANww-20" value="" style="html=1;verticalAlign=bottom;labelBackgroundColor=none;endArrow=block;endFill=1;dashed=1;rounded=0;" edge="1" parent="1">
          <mxGeometry width="160" relative="1" as="geometry">
            <mxPoint x="541" y="300" as="sourcePoint" />
            <mxPoint x="310" y="300" as="targetPoint" />
          </mxGeometry>
        </mxCell>
        <mxCell id="l2SYp345RRYpBKZvANww-21" value="retorna TipoSubmissão para &quot;minicurso&quot;" style="text;html=1;align=center;verticalAlign=middle;resizable=0;points=[];autosize=1;strokeColor=none;fillColor=none;" vertex="1" parent="1">
          <mxGeometry x="310" y="270" width="240" height="30" as="geometry" />
        </mxCell>
        <mxCell id="l2SYp345RRYpBKZvANww-22" value="" style="endArrow=classic;html=1;rounded=0;" edge="1" parent="1">
          <mxGeometry width="50" height="50" relative="1" as="geometry">
            <mxPoint x="100" y="340" as="sourcePoint" />
            <mxPoint x="310" y="340" as="targetPoint" />
          </mxGeometry>
        </mxCell>
        <mxCell id="l2SYp345RRYpBKZvANww-23" value="Insere os dados e seleciona &lt;br&gt;&quot;Submeter&quot;" style="text;html=1;align=center;verticalAlign=middle;resizable=0;points=[];autosize=1;strokeColor=none;fillColor=none;" vertex="1" parent="1">
          <mxGeometry x="120" y="300" width="170" height="40" as="geometry" />
        </mxCell>
        <mxCell id="l2SYp345RRYpBKZvANww-25" value="" style="endArrow=classic;html=1;rounded=0;" edge="1" parent="1">
          <mxGeometry width="50" height="50" relative="1" as="geometry">
            <mxPoint x="310" y="340" as="sourcePoint" />
            <mxPoint x="710" y="340" as="targetPoint" />
          </mxGeometry>
        </mxCell>
        <mxCell id="l2SYp345RRYpBKZvANww-26" value="createSubmissao(dados, &lt;br&gt;minicurso)" style="text;html=1;align=center;verticalAlign=middle;resizable=0;points=[];autosize=1;strokeColor=none;fillColor=none;" vertex="1" parent="1">
          <mxGeometry x="550" y="300" width="160" height="40" as="geometry" />
        </mxCell>
        <mxCell id="l2SYp345RRYpBKZvANww-27" value="" style="endArrow=none;html=1;rounded=0;" edge="1" parent="1">
          <mxGeometry width="50" height="50" relative="1" as="geometry">
            <mxPoint x="765" y="470" as="sourcePoint" />
            <mxPoint x="764.5" y="360" as="targetPoint" />
          </mxGeometry>
        </mxCell>
        <mxCell id="l2SYp345RRYpBKZvANww-28" value="" style="html=1;verticalAlign=bottom;labelBackgroundColor=none;endArrow=block;endFill=1;dashed=1;rounded=0;" edge="1" parent="1">
          <mxGeometry width="160" relative="1" as="geometry">
            <mxPoint x="760" y="400" as="sourcePoint" />
            <mxPoint x="310" y="400" as="targetPoint" />
          </mxGeometry>
        </mxCell>
        <mxCell id="l2SYp345RRYpBKZvANww-29" value="retorna objeto Submissão" style="text;html=1;align=center;verticalAlign=middle;resizable=0;points=[];autosize=1;strokeColor=none;fillColor=none;" vertex="1" parent="1">
          <mxGeometry x="350" y="370" width="160" height="30" as="geometry" />
        </mxCell>
        <mxCell id="l2SYp345RRYpBKZvANww-30" value="" style="html=1;verticalAlign=bottom;labelBackgroundColor=none;endArrow=block;endFill=1;dashed=1;rounded=0;" edge="1" parent="1">
          <mxGeometry width="160" relative="1" as="geometry">
            <mxPoint x="310" y="400" as="sourcePoint" />
            <mxPoint x="100" y="400" as="targetPoint" />
          </mxGeometry>
        </mxCell>
        <mxCell id="l2SYp345RRYpBKZvANww-31" value="Mensagem &quot;Submissão enviada&quot;" style="text;html=1;align=center;verticalAlign=middle;resizable=0;points=[];autosize=1;strokeColor=none;fillColor=none;" vertex="1" parent="1">
          <mxGeometry x="110" y="370" width="200" height="30" as="geometry" />
        </mxCell>
        <mxCell id="l2SYp345RRYpBKZvANww-32" value="" style="html=1;verticalAlign=bottom;labelBackgroundColor=none;endArrow=block;endFill=1;dashed=1;rounded=0;" edge="1" parent="1">
          <mxGeometry width="160" relative="1" as="geometry">
            <mxPoint x="310" y="299" as="sourcePoint" />
            <mxPoint x="100" y="299" as="targetPoint" />
          </mxGeometry>
        </mxCell>
        <mxCell id="l2SYp345RRYpBKZvANww-33" value="Mostra formulário minicurso" style="text;html=1;align=center;verticalAlign=middle;resizable=0;points=[];autosize=1;strokeColor=none;fillColor=none;" vertex="1" parent="1">
          <mxGeometry x="120" y="270" width="170" height="30" as="geometry" />
        </mxCell>
      </root>
    </mxGraphModel>
  </diagram>
</mxfile>
